<?xml version="1.0" encoding="UTF-8"?>
<!--Generator: Apple Native CoreSVG 175-->
<!DOCTYPE svg
PUBLIC "-//W3C//DTD SVG 1.1//EN"
       "http://www.w3.org/Graphics/SVG/1.1/DTD/svg11.dtd">
<svg version="1.1" xmlns="http://www.w3.org/2000/svg" xmlns:xlink="http://www.w3.org/1999/xlink" width="3300" height="2200">
 <!--glyph: "", point size: 100.0, font version: "17.3d3e1", template writer version: "65.1"-->
 <g id="Notes">
  <rect height="2200" id="artboard" style="fill:white;opacity:1" width="3300" x="0" y="0"/>
  <line style="fill:none;stroke:black;opacity:1;stroke-width:0.5;" x1="263" x2="3036" y1="292" y2="292"/>
  <text style="stroke:none;fill:black;font-family:sans-serif;font-size:13;font-weight:bold;" transform="matrix(1 0 0 1 263 322)">Weight/Scale Variations</text>
  <text style="stroke:none;fill:black;font-family:sans-serif;font-size:13;text-anchor:middle;" transform="matrix(1 0 0 1 559.711 322)">Ultralight</text>
  <text style="stroke:none;fill:black;font-family:sans-serif;font-size:13;text-anchor:middle;" transform="matrix(1 0 0 1 856.422 322)">Thin</text>
  <text style="stroke:none;fill:black;font-family:sans-serif;font-size:13;text-anchor:middle;" transform="matrix(1 0 0 1 1153.13 322)">Light</text>
  <text style="stroke:none;fill:black;font-family:sans-serif;font-size:13;text-anchor:middle;" transform="matrix(1 0 0 1 1449.84 322)">Regular</text>
  <text style="stroke:none;fill:black;font-family:sans-serif;font-size:13;text-anchor:middle;" transform="matrix(1 0 0 1 1746.56 322)">Medium</text>
  <text style="stroke:none;fill:black;font-family:sans-serif;font-size:13;text-anchor:middle;" transform="matrix(1 0 0 1 2043.27 322)">Semibold</text>
  <text style="stroke:none;fill:black;font-family:sans-serif;font-size:13;text-anchor:middle;" transform="matrix(1 0 0 1 2339.98 322)">Bold</text>
  <text style="stroke:none;fill:black;font-family:sans-serif;font-size:13;text-anchor:middle;" transform="matrix(1 0 0 1 2636.69 322)">Heavy</text>
  <text style="stroke:none;fill:black;font-family:sans-serif;font-size:13;text-anchor:middle;" transform="matrix(1 0 0 1 2933.4 322)">Black</text>
  <line style="fill:none;stroke:black;opacity:1;stroke-width:0.5;" x1="263" x2="3036" y1="1903" y2="1903"/>
  <g transform="matrix(1 0 0 1 263 1933)">
   <path d="M9.24805 0.830078Q10.8691 0.830078 12.2949 0.214844Q13.7207-0.400391 14.8096-1.49414Q15.8984-2.58789 16.5186-4.01367Q17.1387-5.43945 17.1387-7.05078Q17.1387-8.66211 16.5186-10.0879Q15.8984-11.5137 14.8047-12.6074Q13.7109-13.7012 12.2852-14.3164Q10.8594-14.9316 9.23828-14.9316Q7.62695-14.9316 6.20117-14.3164Q4.77539-13.7012 3.69141-12.6074Q2.60742-11.5137 1.9873-10.0879Q1.36719-8.66211 1.36719-7.05078Q1.36719-5.43945 1.9873-4.01367Q2.60742-2.58789 3.69629-1.49414Q4.78516-0.400391 6.21094 0.214844Q7.63672 0.830078 9.24805 0.830078ZM9.24805-0.654297Q7.91992-0.654297 6.7627-1.14746Q5.60547-1.64062 4.73145-2.51953Q3.85742-3.39844 3.36426-4.56055Q2.87109-5.72266 2.87109-7.05078Q2.87109-8.37891 3.35938-9.54102Q3.84766-10.7031 4.72168-11.582Q5.5957-12.4609 6.75293-12.9541Q7.91016-13.4473 9.23828-13.4473Q10.5762-13.4473 11.7334-12.9541Q12.8906-12.4609 13.7695-11.582Q14.6484-10.7031 15.1465-9.54102Q15.6445-8.37891 15.6445-7.05078Q15.6445-5.72266 15.1514-4.56055Q14.6582-3.39844 13.7842-2.51953Q12.9102-1.64062 11.748-1.14746Q10.5859-0.654297 9.24805-0.654297ZM5.6543-7.05078Q5.6543-6.72852 5.85938-6.52832Q6.06445-6.32812 6.40625-6.32812L8.51562-6.32812L8.51562-4.20898Q8.51562-3.88672 8.71094-3.67676Q8.90625-3.4668 9.23828-3.4668Q9.56055-3.4668 9.77051-3.67676Q9.98047-3.88672 9.98047-4.20898L9.98047-6.32812L12.0898-6.32812Q12.4219-6.32812 12.627-6.52832Q12.832-6.72852 12.832-7.05078Q12.832-7.38281 12.627-7.58789Q12.4219-7.79297 12.0898-7.79297L9.98047-7.79297L9.98047-9.90234Q9.98047-10.2344 9.77051-10.4443Q9.56055-10.6543 9.23828-10.6543Q8.90625-10.6543 8.71094-10.4443Q8.51562-10.2344 8.51562-9.90234L8.51562-7.79297L6.40625-7.79297Q6.06445-7.79297 5.85938-7.58789Q5.6543-7.38281 5.6543-7.05078Z"/>
  </g>
  <g transform="matrix(1 0 0 1 281.867 1933)">
   <path d="M11.709 2.91016Q13.75 2.91016 15.5518 2.12891Q17.3535 1.34766 18.7305-0.0292969Q20.1074-1.40625 20.8887-3.20801Q21.6699-5.00977 21.6699-7.05078Q21.6699-9.0918 20.8887-10.8936Q20.1074-12.6953 18.7305-14.0723Q17.3535-15.4492 15.5469-16.2305Q13.7402-17.0117 11.6992-17.0117Q9.6582-17.0117 7.85645-16.2305Q6.05469-15.4492 4.68262-14.0723Q3.31055-12.6953 2.5293-10.8936Q1.74805-9.0918 1.74805-7.05078Q1.74805-5.00977 2.5293-3.20801Q3.31055-1.40625 4.6875-0.0292969Q6.06445 1.34766 7.86621 2.12891Q9.66797 2.91016 11.709 2.91016ZM11.709 1.25Q9.98047 1.25 8.47656 0.605469Q6.97266-0.0390625 5.83496-1.17676Q4.69727-2.31445 4.05762-3.81836Q3.41797-5.32227 3.41797-7.05078Q3.41797-8.7793 4.05762-10.2832Q4.69727-11.7871 5.83008-12.9297Q6.96289-14.0723 8.4668-14.7119Q9.9707-15.3516 11.6992-15.3516Q13.4277-15.3516 14.9316-14.7119Q16.4355-14.0723 17.5781-12.9297Q18.7207-11.7871 19.3652-10.2832Q20.0098-8.7793 20.0098-7.05078Q20.0098-5.32227 19.3701-3.81836Q18.7305-2.31445 17.5928-1.17676Q16.4551-0.0390625 14.9463 0.605469Q13.4375 1.25 11.709 1.25ZM7.17773-7.05078Q7.17773-6.69922 7.41211-6.47461Q7.64648-6.25 8.01758-6.25L10.8887-6.25L10.8887-3.36914Q10.8887-2.99805 11.1133-2.76855Q11.3379-2.53906 11.6895-2.53906Q12.0605-2.53906 12.29-2.76855Q12.5195-2.99805 12.5195-3.36914L12.5195-6.25L15.4004-6.25Q15.7715-6.25 16.001-6.47461Q16.2305-6.69922 16.2305-7.05078Q16.2305-7.42188 16.001-7.65137Q15.7715-7.88086 15.4004-7.88086L12.5195-7.88086L12.5195-10.752Q12.5195-11.1328 12.29-11.3623Q12.0605-11.5918 11.6895-11.5918Q11.3379-11.5918 11.1133-11.3574Q10.8887-11.123 10.8887-10.752L10.8887-7.88086L8.01758-7.88086Q7.63672-7.88086 7.40723-7.65137Q7.17773-7.42188 7.17773-7.05078Z"/>
  </g>
  <g transform="matrix(1 0 0 1 305.646 1933)">
   <path d="M14.9707 5.66406Q17.0605 5.66406 18.96 5.01465Q20.8594 4.36523 22.4512 3.19336Q24.043 2.02148 25.2197 0.429688Q26.3965-1.16211 27.0459-3.06641Q27.6953-4.9707 27.6953-7.05078Q27.6953-9.14062 27.0459-11.04Q26.3965-12.9395 25.2197-14.5312Q24.043-16.123 22.4512-17.2998Q20.8594-18.4766 18.9551-19.126Q17.0508-19.7754 14.9609-19.7754Q12.8711-19.7754 10.9717-19.126Q9.07227-18.4766 7.48535-17.2998Q5.89844-16.123 4.72168-14.5312Q3.54492-12.9395 2.90039-11.04Q2.25586-9.14062 2.25586-7.05078Q2.25586-4.9707 2.90527-3.06641Q3.55469-1.16211 4.72656 0.429688Q5.89844 2.02148 7.49023 3.19336Q9.08203 4.36523 10.9814 5.01465Q12.8809 5.66406 14.9707 5.66406ZM14.9707 3.84766Q13.1641 3.84766 11.5283 3.2959Q9.89258 2.74414 8.53516 1.74805Q7.17773 0.751953 6.17676-0.610352Q5.17578-1.97266 4.62891-3.6084Q4.08203-5.24414 4.08203-7.05078Q4.08203-8.86719 4.62891-10.5029Q5.17578-12.1387 6.17188-13.501Q7.16797-14.8633 8.52539-15.8594Q9.88281-16.8555 11.5186-17.4023Q13.1543-17.9492 14.9609-17.9492Q16.7773-17.9492 18.4131-17.4023Q20.0488-16.8555 21.4111-15.8594Q22.7734-14.8633 23.7695-13.501Q24.7656-12.1387 25.3174-10.5029Q25.8691-8.86719 25.8691-7.05078Q25.8789-5.24414 25.332-3.6084Q24.7852-1.97266 23.7842-0.610352Q22.7832 0.751953 21.4209 1.74805Q20.0586 2.74414 18.4229 3.2959Q16.7871 3.84766 14.9707 3.84766ZM9.19922-7.05078Q9.19922-6.66992 9.45801-6.4209Q9.7168-6.17188 10.1172-6.17188L14.0625-6.17188L14.0625-2.2168Q14.0625-1.81641 14.3115-1.55762Q14.5605-1.29883 14.9512-1.29883Q15.3516-1.29883 15.6104-1.55273Q15.8691-1.80664 15.8691-2.2168L15.8691-6.17188L19.8242-6.17188Q20.2246-6.17188 20.4785-6.4209Q20.7324-6.66992 20.7324-7.05078Q20.7324-7.46094 20.4785-7.71484Q20.2246-7.96875 19.8242-7.96875L15.8691-7.96875L15.8691-11.9141Q15.8691-12.3242 15.6104-12.583Q15.3516-12.8418 14.9512-12.8418Q14.5605-12.8418 14.3115-12.583Q14.0625-12.3242 14.0625-11.9141L14.0625-7.96875L10.1172-7.96875Q9.70703-7.96875 9.45312-7.71484Q9.19922-7.46094 9.19922-7.05078Z"/>
  </g>
  <text style="stroke:none;fill:black;font-family:sans-serif;font-size:13;font-weight:bold;" transform="matrix(1 0 0 1 263 1953)">Design Variations</text>
  <text style="stroke:none;fill:black;font-family:sans-serif;font-size:13;" transform="matrix(1 0 0 1 263 1971)">Symbols are supported in up to nine weights and three scales.</text>
  <text style="stroke:none;fill:black;font-family:sans-serif;font-size:13;" transform="matrix(1 0 0 1 263 1989)">For optimal layout with text and other symbols, vertically align</text>
  <text style="stroke:none;fill:black;font-family:sans-serif;font-size:13;" transform="matrix(1 0 0 1 263 2007)">symbols with the adjacent text.</text>
  <line style="fill:none;stroke:#00AEEF;stroke-width:0.5;opacity:1.0;" x1="776" x2="776" y1="1919" y2="1933"/>
  <g transform="matrix(1 0 0 1 776 1933)">
   <path d="M3.31055 0.15625Q3.70117 0.15625 3.91602-0.00976562Q4.13086-0.175781 4.26758-0.585938L5.52734-4.0332L11.2891-4.0332L12.5488-0.585938Q12.6855-0.175781 12.9004-0.00976562Q13.1152 0.15625 13.4961 0.15625Q13.8867 0.15625 14.1162-0.0585938Q14.3457-0.273438 14.3457-0.644531Q14.3457-0.869141 14.2383-1.17188L9.6582-13.3691Q9.48242-13.8184 9.17969-14.043Q8.87695-14.2676 8.4082-14.2676Q7.5-14.2676 7.17773-13.3789L2.59766-1.16211Q2.49023-0.859375 2.49023-0.634766Q2.49023-0.263672 2.70996-0.0537109Q2.92969 0.15625 3.31055 0.15625ZM6.00586-5.51758L8.37891-12.0898L8.42773-12.0898L10.8008-5.51758Z"/>
  </g>
  <line style="fill:none;stroke:#00AEEF;stroke-width:0.5;opacity:1.0;" x1="793.197" x2="793.197" y1="1919" y2="1933"/>
  <text style="stroke:none;fill:black;font-family:sans-serif;font-size:13;font-weight:bold;" transform="matrix(1 0 0 1 776 1953)">Margins</text>
  <text style="stroke:none;fill:black;font-family:sans-serif;font-size:13;" transform="matrix(1 0 0 1 776 1971)">Leading and trailing margins on the left and right side of each symbol</text>
  <text style="stroke:none;fill:black;font-family:sans-serif;font-size:13;" transform="matrix(1 0 0 1 776 1989)">can be adjusted by modifying the x-location of the margin guidelines.</text>
  <text style="stroke:none;fill:black;font-family:sans-serif;font-size:13;" transform="matrix(1 0 0 1 776 2007)">Modifications are automatically applied proportionally to all</text>
  <text style="stroke:none;fill:black;font-family:sans-serif;font-size:13;" transform="matrix(1 0 0 1 776 2025)">scales and weights.</text>
  <g transform="matrix(1 0 0 1 1289 1933)">
   <path d="M2.8418 1.86523L4.54102 3.57422Q5.18555 4.22852 5.90332 4.17969Q6.62109 4.13086 7.31445 3.35938L18.0078-8.42773L17.041-9.4043L6.42578 2.27539Q6.16211 2.57812 5.89355 2.61719Q5.625 2.65625 5.27344 2.30469L4.10156 1.14258Q3.75 0.791016 3.79395 0.522461Q3.83789 0.253906 4.14062-0.0195312L15.6152-10.8203L14.6387-11.7871L3.04688-0.898438Q2.30469-0.214844 2.25098 0.498047Q2.19727 1.21094 2.8418 1.86523ZM9.25781-16.3281Q8.94531-16.0254 8.90625-15.6348Q8.86719-15.2441 9.04297-14.9512Q9.21875-14.6777 9.55566-14.541Q9.89258-14.4043 10.3809-14.5215Q11.4746-14.7754 12.5977-14.7314Q13.7207-14.6875 14.7949-13.9844L14.209-12.5293Q13.9551-11.9043 14.0674-11.4404Q14.1797-10.9766 14.5801-10.5664L16.875-8.25195Q17.2363-7.88086 17.5781-7.82227Q17.9199-7.76367 18.3398-7.8418L19.4043-8.03711L20.0684-7.36328L20.0293-6.80664Q20-6.43555 20.1221-6.12305Q20.2441-5.81055 20.6055-5.44922L21.3672-4.70703Q21.7285-4.3457 22.1533-4.33105Q22.5781-4.31641 22.9297-4.66797L25.8398-7.58789Q26.1914-7.93945 26.1816-8.35449Q26.1719-8.76953 25.8105-9.13086L25.0391-9.89258Q24.6875-10.2539 24.3799-10.3857Q24.0723-10.5176 23.7109-10.4883L23.1348-10.4395L22.4902-11.0742L22.7344-12.1973Q22.832-12.6172 22.6953-12.9834Q22.5586-13.3496 22.1191-13.7891L19.9219-15.9766Q18.6719-17.2168 17.2607-17.8369Q15.8496-18.457 14.4189-18.4814Q12.9883-18.5059 11.665-17.959Q10.3418-17.4121 9.25781-16.3281ZM10.752-15.957Q11.6602-16.6211 12.7002-16.9043Q13.7402-17.1875 14.8047-17.085Q15.8691-16.9824 16.8701-16.5137Q17.8711-16.0449 18.7012-15.2051L21.1328-12.793Q21.3086-12.6172 21.3525-12.4512Q21.3965-12.2852 21.3379-12.0312L21.0156-10.5469L22.5195-9.0625L23.5059-9.12109Q23.6914-9.13086 23.7891-9.09668Q23.8867-9.0625 24.0332-8.91602L24.6094-8.33984L22.168-5.89844L21.5918-6.47461Q21.4453-6.62109 21.4062-6.71875Q21.3672-6.81641 21.377-7.01172L21.4453-7.98828L19.9512-9.47266L18.4277-9.21875Q18.1836-9.16992 18.042-9.2041Q17.9004-9.23828 17.7148-9.41406L15.7129-11.416Q15.5176-11.5918 15.4932-11.7529Q15.4688-11.9141 15.5859-12.1875L16.4648-14.2773Q15.293-15.3711 13.8281-15.791Q12.3633-16.2109 10.8398-15.7617Q10.7227-15.7324 10.6885-15.8057Q10.6543-15.8789 10.752-15.957Z"/>
  </g>
  <text style="stroke:none;fill:black;font-family:sans-serif;font-size:13;font-weight:bold;" transform="matrix(1 0 0 1 1289 1953)">Exporting</text>
  <text style="stroke:none;fill:black;font-family:sans-serif;font-size:13;" transform="matrix(1 0 0 1 1289 1971)">Symbols should be outlined when exporting to ensure the</text>
  <text style="stroke:none;fill:black;font-family:sans-serif;font-size:13;" transform="matrix(1 0 0 1 1289 1989)">design is preserved when submitting to Xcode.</text>
  <text id="template-version" style="stroke:none;fill:black;font-family:sans-serif;font-size:13;text-anchor:end;" transform="matrix(1 0 0 1 3036 1933)">Template v.3.0</text>
  <text style="stroke:none;fill:black;font-family:sans-serif;font-size:13;text-anchor:end;" transform="matrix(1 0 0 1 3036 1951)">Requires Xcode 13 or greater</text>
  <text id="descriptive-name" style="stroke:none;fill:black;font-family:sans-serif;font-size:13;text-anchor:end;" transform="matrix(1 0 0 1 3036 1969)">Generated from custom.leaf.fill</text>
  <text style="stroke:none;fill:black;font-family:sans-serif;font-size:13;text-anchor:end;" transform="matrix(1 0 0 1 3036 1987)">Typeset at 100 points</text>
  <text style="stroke:none;fill:black;font-family:sans-serif;font-size:13;" transform="matrix(1 0 0 1 263 726)">Small</text>
  <text style="stroke:none;fill:black;font-family:sans-serif;font-size:13;" transform="matrix(1 0 0 1 263 1156)">Medium</text>
  <text style="stroke:none;fill:black;font-family:sans-serif;font-size:13;" transform="matrix(1 0 0 1 263 1586)">Large</text>
 </g>
 <g id="Guides">
  <g id="H-reference" style="fill:#27AAE1;stroke:none;" transform="matrix(1 0 0 1 339 696)">
   <path d="M0.993347 0L3.6377 0L29.3282-67.1326L30.0301-67.1326L30.0301-70.459L28.1227-70.459ZM11.6882-24.4797L46.9818-24.4797L46.2311-26.7288L12.4382-26.7288ZM55.1193 0L57.7637 0L30.6381-70.459L29.4327-70.459L29.4327-67.1326Z"/>
  </g>
  <line id="Baseline-S" style="fill:none;stroke:#27AAE1;opacity:1;stroke-width:0.5;" x1="263" x2="3036" y1="696" y2="696"/>
  <line id="Capline-S" style="fill:none;stroke:#27AAE1;opacity:1;stroke-width:0.5;" x1="263" x2="3036" y1="625.541" y2="625.541"/>
  <g id="H-reference" style="fill:#27AAE1;stroke:none;" transform="matrix(1 0 0 1 339 1126)">
   <path d="M0.993347 0L3.6377 0L29.3282-67.1326L30.0301-67.1326L30.0301-70.459L28.1227-70.459ZM11.6882-24.4797L46.9818-24.4797L46.2311-26.7288L12.4382-26.7288ZM55.1193 0L57.7637 0L30.6381-70.459L29.4327-70.459L29.4327-67.1326Z"/>
  </g>
  <line id="Baseline-M" style="fill:none;stroke:#27AAE1;opacity:1;stroke-width:0.5;" x1="263" x2="3036" y1="1126" y2="1126"/>
  <line id="Capline-M" style="fill:none;stroke:#27AAE1;opacity:1;stroke-width:0.5;" x1="263" x2="3036" y1="1055.54" y2="1055.54"/>
  <g id="H-reference" style="fill:#27AAE1;stroke:none;" transform="matrix(1 0 0 1 339 1556)">
   <path d="M0.993347 0L3.6377 0L29.3282-67.1326L30.0301-67.1326L30.0301-70.459L28.1227-70.459ZM11.6882-24.4797L46.9818-24.4797L46.2311-26.7288L12.4382-26.7288ZM55.1193 0L57.7637 0L30.6381-70.459L29.4327-70.459L29.4327-67.1326Z"/>
  </g>
  <line id="Baseline-L" style="fill:none;stroke:#27AAE1;opacity:1;stroke-width:0.5;" x1="263" x2="3036" y1="1556" y2="1556"/>
  <line id="Capline-L" style="fill:none;stroke:#27AAE1;opacity:1;stroke-width:0.5;" x1="263" x2="3036" y1="1485.54" y2="1485.54"/>
  <line id="left-margin-Regular-M" style="fill:none;stroke:#00AEEF;stroke-width:0.5;opacity:1.0;" x1="1388.41" x2="1388.41" y1="1030.78" y2="1150.12"/>
  <line id="right-margin-Regular-M" style="fill:none;stroke:#00AEEF;stroke-width:0.5;opacity:1.0;" x1="1511.28" x2="1511.28" y1="1030.78" y2="1150.12"/>
 </g>
 <g id="Symbols">
   <g id="Black-S" transform="matrix(1 0 0 1 2881.64 696)">
   <path d="M8.10547-69.5907Q7.42188-66.6122 7.12891-62.9012Q6.83594-59.1903 6.83594-56.3583Q6.83594-44.8348 10.1562-35.4598Q13.4766-26.0848 19.6777-19.371Q25.8789-12.6571 34.5215-9.04377Q43.1641-5.43049 53.7598-5.43049Q61.1816-5.43049 66.5039-7.31037Q71.8262-9.19026 75.3906-11.9003Q78.9551-14.6102 81.0791-17.1493Q83.2031-19.6884 84.2285-20.9579L74.1211-22.1298Q77.5879-18.4677 79.541-15.2206Q81.4941-11.9735 82.7637-8.50666Q84.0332-5.03987 85.4004-0.54768Q85.9375 1.11248 87.1338 2.0158Q88.3301 2.91912 89.9414 2.91912Q92.7734 2.91912 94.7266 0.770679Q96.6797-1.37776 96.6797-4.50276Q96.6797-6.65119 95.3125-9.4344Q93.9453-12.2177 91.8701-15.0497Q89.7949-17.8817 87.6465-20.3231Q85.498-22.7645 83.8867-24.2294Q79.248-28.5262 74.0479-30.7968Q68.8477-33.0673 63.5254-34.1659Q58.2031-35.2645 53.1982-35.9969Q48.1934-36.7294 43.9453-37.8524Q39.6973-38.9755 36.5967-41.2948Q33.4961-43.6141 32.0312-48.0087Q31.8359-48.6434 32.251-48.7899Q32.666-48.9364 32.959-48.5946Q36.3281-44.6395 40.1367-42.7596Q43.9453-40.8798 48.0713-40.1962Q52.1973-39.5126 56.4697-39.2684Q60.7422-39.0243 65.0635-38.4628Q69.3848-37.9012 73.6328-36.1923Q77.8809-34.4833 81.9336-30.8212Q83.7402-29.2098 85.5957-29.6981Q87.4512-30.1864 87.793-32.1395Q87.9395-32.9696 88.0371-34.1903Q88.1348-35.411 88.1348-36.9247Q88.1348-46.495 84.0332-53.3553Q79.9316-60.2157 72.2656-63.9022Q64.5996-67.5887 53.9062-67.5887Q48.9258-67.5887 43.4326-66.661Q37.9395-65.7333 33.5938-65.7333Q30.6641-65.7333 27.5635-66.0262Q24.4629-66.3192 21.4111-67.5887Q18.3594-68.8583 15.4785-71.6903Q13.4277-73.7411 11.1084-73.0819Q8.78906-72.4227 8.10547-69.5907Z"/>
  </g>
  <g id="Heavy-S" transform="matrix(1 0 0 1 2585.65 696)">
   <path d="M8.08242-68.968Q7.41036-66.0241 7.12315-62.365Q6.83594-58.706 6.83594-55.9201Q6.83594-44.5694 10.1044-35.3385Q13.3729-26.1075 19.4645-19.4917Q25.5562-12.8757 34.0605-9.31433Q42.5648-5.75291 52.9992-5.75291Q60.2712-5.75291 65.484-7.58093Q70.6968-9.40895 74.1748-12.0325Q77.6528-14.656 79.6846-17.0798Q81.7165-19.5037 82.6266-20.6579L73.6486-21.657Q76.8964-18.2369 78.8092-15.0705Q80.722-11.904 82.0031-8.47758Q83.2841-5.05112 84.6167-0.720276Q85.1308 0.870736 86.2522 1.69338Q87.3736 2.51603 88.8466 2.51603Q91.5172 2.51603 93.3782 0.482838Q95.2391-1.55035 95.2391-4.54859Q95.2391-6.65092 93.895-9.37074Q92.5508-12.0906 90.516-14.8707Q88.4811-17.6509 86.3673-20.0462Q84.2534-22.4415 82.6651-23.8949Q78.1186-28.0995 72.9992-30.3355Q67.8796-32.5714 62.6265-33.6758Q57.3733-34.7802 52.4203-35.5356Q47.4674-36.2912 43.2538-37.4487Q39.0404-38.6064 35.9513-40.9487Q32.8622-43.2911 31.3858-47.6742Q31.156-48.4011 31.669-48.6455Q32.182-48.89 32.6363-48.3984Q35.9939-44.5931 39.7679-42.7823Q43.5419-40.9717 47.6046-40.3111Q51.6672-39.6506 55.8877-39.3891Q60.1083-39.1277 64.3835-38.5259Q68.6588-37.9239 72.8837-36.1804Q77.1088-34.4369 81.173-30.7402Q82.8067-29.2902 84.4663-29.7496Q86.1259-30.2091 86.4331-31.9548Q86.5796-32.7734 86.6715-33.9941Q86.7634-35.2148 86.7634-36.6593Q86.7634-46.2066 82.6676-52.9171Q78.5717-59.6276 71.0267-63.1758Q63.4817-66.7241 53.1456-66.7241Q48.2343-66.7241 42.8103-65.8136Q37.3863-64.9032 33.0637-64.9032Q30.1455-64.9032 27.0334-65.2019Q23.9213-65.5006 20.8464-66.7759Q17.7716-68.0513 14.8908-70.9063Q13.0244-72.7727 10.8779-72.2115Q8.73144-71.6502 8.08242-68.968Z"/>
  </g>
  <g id="Bold-S" transform="matrix(1 0 0 1 2289.75 696)">
   <path d="M8.05664-68.2717Q7.39746-65.3664 7.1167-61.7653Q6.83594-58.1643 6.83594-55.4299Q6.83594-44.2727 10.0464-35.2028Q13.2568-26.133 19.2261-19.6267Q25.1953-13.1203 33.5449-9.61693Q41.8945-6.11351 52.1484-6.11351Q59.2529-6.11351 64.3433-7.88353Q69.4336-9.65355 72.815-12.1804Q76.1963-14.7072 78.125-17.0022Q80.0537-19.2971 80.835-20.3225L73.1201-21.1282Q76.1231-17.9788 77.9907-14.9026Q79.8584-11.8264 81.1523-8.44505Q82.4463-5.06371 83.7402-0.913317Q84.2285 0.600357 85.2661 1.33278Q86.3037 2.0652 87.6221 2.0652Q90.1123 2.0652 91.8701 0.160902Q93.628-1.7434 93.628-4.59984Q93.628-6.65062 92.3096-9.29955Q90.9912-11.9485 89.0015-14.6706Q87.0117-17.3928 84.9365-19.7365Q82.8613-22.0803 81.2988-23.5207Q76.8555-27.6223 71.8262-29.8196Q66.7969-32.0168 61.6211-33.1277Q56.4453-34.2385 51.5502-35.0197Q46.6553-35.801 42.4804-36.9973Q38.3057-38.1936 35.2295-40.5617Q32.1533-42.9299 30.664-47.3Q30.3955-48.1301 31.0181-48.4841Q31.6406-48.8381 32.2754-48.1789Q35.6201-44.5412 39.3555-42.8078Q43.0908-41.0745 47.0826-40.4397Q51.0742-39.8049 55.2368-39.5241Q59.3994-39.2434 63.6231-38.5964Q67.8467-37.9494 72.0459-36.1672Q76.2452-34.385 80.3222-30.6496Q81.7627-29.3801 83.2031-29.8073Q84.6436-30.2346 84.9121-31.7482Q85.0586-32.5539 85.144-33.7746Q85.2295-34.9953 85.2295-36.3625Q85.2295-45.884 81.1401-52.4269Q77.0507-58.9699 69.6411-62.3635Q62.2314-65.757 52.2949-65.757Q47.461-65.757 42.1143-64.8659Q36.7676-63.9748 32.4708-63.9748Q29.5654-63.9748 26.4405-64.28Q23.3154-64.5852 20.2148-65.8669Q17.1142-67.1487 14.2334-70.0295Q12.5733-71.6897 10.6201-71.238Q8.66699-70.7863 8.05664-68.2717Z"/>
  </g>
  <g id="Semibold-S" transform="matrix(1 0 0 1 1993.59 696)">
   <path d="M8.03887-67.7916Q7.38858-64.913 7.11226-61.3519Q6.83594-57.7908 6.83594-55.092Q6.83594-44.0681 10.0064-35.1093Q13.1769-26.1506 19.0616-19.7198Q24.9465-13.289 33.1895-9.82556Q41.4324-6.36213 51.5619-6.36213Q58.5509-6.36213 63.5568-8.09216Q68.5627-9.82219 71.8774-12.2824Q75.1921-14.7426 77.0497-16.9487Q78.9073-19.1547 79.5997-20.0912L72.7557-20.7636Q75.5898-17.8008 77.4264-14.7869Q79.263-11.7729 80.5658-8.42263Q81.8687-5.07238 83.136-1.04641Q83.6064 0.413945 84.5863 1.08416Q85.5661 1.75438 86.7778 1.75438Q89.1437 1.75438 90.8304-0.0610568Q92.5171-1.87649 92.5171-4.63518Q92.5171-6.65041 91.2165-9.25046Q89.9159-11.8505 87.9573-14.5327Q85.9986-17.2148 83.9501-19.5231Q81.9015-21.8313 80.3568-23.2628Q75.9846-27.2933 71.0175-29.4639Q66.0504-31.6345 60.9279-32.7498Q55.8055-33.865 50.9504-34.6641Q46.0954-35.4631 41.9472-36.6861Q37.7992-37.909 34.7318-40.2949Q31.6645-42.6809 30.1664-47.0421Q29.8712-47.9433 30.5693-48.3728Q31.2674-48.8024 32.0266-48.0277Q35.3624-44.5055 39.0711-42.8254Q42.7798-41.1454 46.7226-40.5283Q50.6655-39.9114 54.788-39.6173Q58.9106-39.3232 63.0987-38.6451Q67.2868-37.967 71.4683-36.1581Q75.6497-34.3492 79.7357-30.5872Q81.0429-29.4421 82.3322-29.8471Q83.6216-30.2522 83.8635-31.6058Q84.01-32.4027 84.091-33.6234Q84.172-34.8441 84.172-36.1579Q84.172-45.6617 80.0871-52.089Q76.0021-58.5165 68.6858-61.8034Q61.3694-65.0903 51.7084-65.0903Q46.9277-65.0903 41.6344-64.2126Q36.341-63.3348 32.062-63.3348Q29.1655-63.3348 26.0317-63.6444Q22.8978-63.954 19.7794-65.2402Q16.661-66.5264 13.7802-69.425Q12.2622-70.943 10.4424-70.5669Q8.62256-70.1907 8.03887-67.7916Z"/>
  </g>
  <g id="Medium-S" transform="matrix(1 0 0 1 1697.3 626)">
   <path d="m69.9562 11.5292c-1.05-.044-2.6687 2.2235-4.1124 4.2488-1.2688 1.7832-2.4063 3.3683-2.9094 3.0601-.3938-.2202-.5688-.3302-.6563-.4843-.0875-.1321-.0875-.3303-.1093-.6605-.0219-.7044-.0657-2.1574-.9188-5.4376-1.1375-4.40291-5.6219-12.636366-14-8.10136-5.1406 2.77384-6.5187 5.83387-7.3281 7.63906-.8531 1.8933-1.0719 2.3996-4.2875-.2422-1.4875-1.2328-2.8-2.64171-4.1125-4.05064-1.1813-1.27685-2.3844-2.55369-3.7188-3.72047-2.7562-2.4216-6.4531-4.336873-10.1281-3.632406-1.4219.242161-2.7344.902596-3.85 1.827216-2.3187 1.95929-3.7187 4.99731-3.95937 8.0794-.32813 4.4469 1.35627 8.8058 3.08437 12.9665.35.9467.7656 1.9814.4156 2.906-.5906 1.607-2.5375 1.6951-4.4406 1.7832-.54688.022-1.07188.044-1.575.11-8.115625.8806-6.9125 12.1081-2.31875 16.1808.80937.7264 1.4 1.1667 1.81563 1.497.80937.6384 1.05.8145 1.33437 1.6731.19688.5723.56875 2.2014-2.12188 1.8712-2.90937-.9026-4.83437-.9246-6.05937-.3302v16.8852c0 2.4216 1.96875 4.4029 4.375 4.4029h61.25c2.4063 0 4.375-1.9813 4.375-4.4029v-54.0679zm-20.5843 20.8258c1.8593-2.7298 6.6937-7.1767 13.4531-6.032 1.2687.2202 2.1219 1.409 1.9031 2.6858-.2187 1.2769-1.4 2.1354-2.6687 1.9153-1.9469-.3302-3.6969.088-5.1406.8145 2.2312.5724 4.2875 2.0254 6.2343 4.491.7875 1.0127.6125 2.4656-.3937 3.2802-1.0063.7925-2.45.6164-3.2594-.3963-1.5094-1.9373-2.8-2.6417-3.85-2.8839-1.0937-.2642-2.2531-.1101-3.6531.3082-1.225.3743-2.5156-.3302-2.8875-1.563-.0875-.2642-.1094-.5284-.0875-.7705-.1313-.6164-.0438-1.2769.35-1.8493zm-21.1313 11.5577c-1.4219.5284-2.45 1.1448-3.1718 2.0253-.7.8586-1.3125 2.2235-1.3563 4.7552 0 1.3209-1.0938 2.3776-2.4063 2.3556-1.3125-.0221-2.3624-1.1008-2.3406-2.4216.0438-3.1481.8094-5.5697 2.2094-7.419-1.575.3303-3.1937 1.0787-4.5281 2.5097-.8969.9686-2.4063 1.0127-3.3469.1101-.9625-.9026-1.0062-2.4216-.1094-3.3683 4.8125-5.1514 11.4844-4.535 14.6781-3.4563.6344.2202 1.1157.6605 1.3782 1.2329.1531.1981.2625.3962.35.6384.4593 1.2328-.1532 2.6197-1.3782 3.082zm36.3782 13.1647c-.1094.2862-.3282.7705-.8532 1.1888-.5906.4623-1.2687.6164-1.8375.5944-1.3344-.066-2.0343-1.0787-2.275-1.9153-.2625-.7925-.2406-.9026-.5687-1.4529-.6563-1.1228-1.6844-2.6198-3.1063-3.9626-2.8218-2.7078-6.8031-4.6451-12.0093-2.884-5.4907 1.8493-7.7 5.2835-8.5313 8.5197-.4375 1.6731-.4812 3.2802-.3719 4.579.0438.6384.1531 1.1888.2406 1.6071.0875.3742.175.5504.175.5944.4813 1.497.1532 2.6197-1.0937 3.2802-1.2469.6604-2.7781.2641-3.4344-.8806-.4812-.8806-.8531-2.3996-.9844-4.0067-.1531-1.7171-.0656-3.8525.5032-6.098 1.1812-4.6011 4.5062-9.5984 11.9656-12.1081 7.7437-2.5977 13.6281.5284 17.2156 3.9627 1.7938 1.7171 3.0844 3.5663 3.9156 4.9973.3938.7045.7219 1.3869.9188 1.9153.0875.2421.1969.5944.2406.9466 0 .1321.0657.5724-.1312 1.1007z"/>
  </g>
  <g id="Regular-S" transform="matrix(1 0 0 1 1401.14 626)">
   <path d="m69.9562 11.4561c-1.05-.0437-2.6687 2.2094-4.1124 4.2219-1.2688 1.7719-2.4063 3.3469-2.9094 3.0406-.3938-.2187-.5688-.3281-.6563-.4812-.0875-.1313-.0875-.3282-.1093-.6563-.0219-.7-.0657-2.1437-.9188-5.4031-1.1375-4.375-5.6219-12.556252-14-8.05-5.1406 2.75625-6.5187 5.79687-7.3281 7.5906-.8531 1.8813-1.0719 2.3844-4.2875-.2406-1.4875-1.225-2.8-2.625-4.1125-4.025-1.1813-1.26875-2.3844-2.5375-3.7188-3.69688-2.7562-2.40625-6.4531-4.309372-10.1281-3.609372-1.4219.240625-2.7344.896872-3.85 1.815622-2.3187 1.94688-3.7187 4.96563-3.95937 8.02813-.32813 4.4187 1.35627 8.75 3.08437 12.8844.35.9406.7656 1.9687.4156 2.8875-.5906 1.5968-2.5375 1.6843-4.4406 1.7718-.54688.0219-1.07188.0438-1.575.1094-8.115625.875-6.9125 12.0313-2.31875 16.0781.80937.7219 1.4 1.1594 1.81563 1.4875.80937.6344 1.05.8094 1.33437 1.6625.19688.5688.56875 2.1875-2.12188 1.8594-2.90937-.8969-4.83437-.9187-6.05937-.3281v16.7781c0 2.4063 1.96875 4.375 4.375 4.375h61.25c2.4063 0 4.375-1.9687 4.375-4.375v-53.725zm-48.7156 39.9c-2.8218.5469-5.5344-1.2906-6.0812-4.1125-.5469-2.8219 1.2906-5.5344 4.1125-6.0812 2.8219-.5469 5.5344 1.2906 6.0812 4.1125.5469 2.8218-1.2906 5.5343-4.1125 6.0812zm41.3219 6.0375c-1.1375 1.0281-2.8438.8969-3.8719-.2406-1.9687-2.4719-7.6781-5.6875-14.4812-3.1938-6.8032 2.4938-8.8156 6.1032-9.5375 10.7626-.175 1.575-1.6407 2.5593-3.0844 2.3406-1.575-.175-2.5594-1.6407-2.3406-3.0844.8312-5.1625 2.8875-11.5281 13.0375-15.225 9.8656-3.6094 17.5656 1.2906 20.5187 4.7687 1.0281 1.1375.8969 2.8657-.2406 3.8719zm-2.8875-17.3906c-2.8219.5469-5.5344-1.2906-6.0812-4.1125-.5469-2.8219 1.2906-5.5344 4.1124-6.0813 2.8219-.5468 5.5344 1.2907 6.0813 4.1125.5469 2.8219-1.2906 5.5344-4.1125 6.0813z"/>
  </g>
  <g id="Light-S" transform="matrix(1 0 0 1 1105.45 626)">
   <path d="m69.9562 11.5292c-1.05-.044-2.6687 2.2235-4.1124 4.2488-1.2688 1.7832-2.4063 3.3683-2.9094 3.0601-.3938-.2202-.5688-.3302-.6563-.4843-.0875-.1321-.0875-.3303-.1093-.6605-.0219-.7044-.0657-2.1574-.9188-5.4376-1.1375-4.40291-5.6219-12.636366-14-8.10136-5.1406 2.77384-6.5187 5.83387-7.3281 7.63906-.8531 1.8933-1.0719 2.3996-4.2875-.2422-1.4875-1.2328-2.8-2.64171-4.1125-4.05064-1.1813-1.27685-2.3844-2.55369-3.7188-3.72047-2.7562-2.4216-6.4531-4.336873-10.1281-3.632406-1.4219.242161-2.7344.902596-3.85 1.827216-2.3187 1.95929-3.7187 4.99731-3.95937 8.0794-.32813 4.4469 1.35627 8.8058 3.08437 12.9665.35.9467.7656 1.9814.4156 2.906-.5906 1.607-2.5375 1.6951-4.4406 1.7832-.54688.022-1.07188.044-1.575.11-8.115625.8806-6.9125 12.1081-2.31875 16.1808.80937.7264 1.4 1.1667 1.81563 1.497.80937.6384 1.05.8145 1.33437 1.6731.19688.5723.56875 2.2014-2.12188 1.8712-2.90937-.9026-4.83437-.9246-6.05937-.3302v16.8852c0 2.4216 1.96875 4.4029 4.375 4.4029h61.25c2.4063 0 4.375-1.9813 4.375-4.4029v-54.0679zm-48.4531 40.2647c-2.8219.5504-5.5343-1.2988-6.0812-4.1387s1.2906-5.5697 4.1125-6.1201c2.8219-.5503 5.5344 1.2989 6.0812 4.1388.5469 2.8399-1.2906 5.5697-4.1125 6.12zm36.7282 3.8966c-1.5313 2.5977-3.9813 4.6011-6.6719 5.944-3.6532 1.8272-7.8313 2.7298-11.8782 2.6637l-1.0281-.044c-1.7062-.1101-3.9593-.1541-5.2937-1.3649-.6125-.5504-1.0063-1.3649-.9844-2.1795 0-.5503.1969-1.0787.5031-1.519.2844-.4182.6563-.7925 1.1156-.9906.6563-.2862 1.3782-.1982 2.0782-.1101.7218.0881 1.4437.1761 2.1656.2422 2.4937.2641 5.075.3522 7.5031-.3523 3.1281-.8806 5.9282-2.9719 8.1157-5.3495.5906-.6384 1.1812-1.3209 1.9906-1.5851.7875-.2421 1.6843-.022 2.2968.5284.6125.5503.9188 1.4309.8313 2.2455-.0656.6604-.3719 1.2768-.7 1.8492zm1.7062-15.3221c-2.8219.5503-5.5344-1.2989-6.0812-4.1388-.5469-2.8399 1.2906-5.5697 4.1125-6.12 2.8218-.5504 5.5343 1.2988 6.0812 4.1387s-1.2906 5.5697-4.1125 6.1201z"/>
  </g>
  <g id="Thin-S" transform="matrix(1 0 0 1 810.089 626)">
   <path d="m69.9562 11.5292c-1.05-.044-2.6687 2.2235-4.1124 4.2488-1.2688 1.7832-2.4063 3.3683-2.9094 3.0601-.3938-.2202-.5688-.3302-.6563-.4843-.0875-.1321-.0875-.3303-.1093-.6605-.0219-.7044-.0657-2.1574-.9188-5.4376-1.1375-4.40291-5.6219-12.636366-14-8.10136-5.1406 2.77384-6.5188 5.83387-7.3281 7.63906-.8531 1.8933-1.0719 2.3996-4.2875-.2422-1.4875-1.2328-2.8-2.64171-4.1125-4.05064-1.1813-1.27685-2.3844-2.55369-3.7188-3.72047-2.7562-2.4216-6.4531-4.336873-10.1281-3.632406-1.4219.242161-2.7344.902596-3.85 1.827216-2.3187 1.95929-3.7187 4.99731-3.95937 8.0794-.32813 4.4469 1.35627 8.8058 3.08437 12.9665.35.9467.7656 1.9814.4156 2.906-.5906 1.607-2.5375 1.6951-4.4406 1.7832-.54687.022-1.07188.044-1.575.11-8.115625.8806-6.9125 12.1081-2.31875 16.1808.80937.7264 1.4 1.1667 1.81563 1.497.80937.6384 1.04999.8145 1.33437 1.6731.19687.5723.56875 2.2014-2.12188 1.8712-2.90937-.9026-4.83437-.9246-6.05937-.3302v16.8852c0 2.4216 1.96875 4.4029 4.375 4.4029h61.25c2.4062 0 4.375-1.9813 4.375-4.4029v-54.0679zm-48.8468 40.2647c-2.8219.5504-5.5344-1.2988-6.0813-4.1387s1.2907-5.5697 4.1125-6.1201c2.8219-.5503 5.5344 1.2989 6.0813 4.1388.5468 2.8399-1.2907 5.5697-4.1125 6.12zm25.9437 13.9573-.0437-.1321c-10.5 2.5757-15.7063-1.453-19.2719-5.3055-.9844-1.0787-.9844-2.8619.2187-3.8966 1.0719-.9907 2.8219-.9907 3.85.2422 3.1938 3.5003 6.8688 5.3935 13.9126 3.6764 7.0437-1.7171 9.9968-7.6171 10.2593-10.7651.2188-1.5191 1.575-2.5978 3.0844-2.3776 1.5094.2201 2.5812 1.585 2.3625 3.104-.5031 4.5571-4.1781 12.9666-14.3938 15.4763zm12.4906-25.3608c-2.8218.5503-5.5343-1.2989-6.0812-4.1388s1.2906-5.5697 4.1125-6.12c2.8219-.5504 5.5344 1.2988 6.0812 4.1387.5469 2.8399-1.2906 5.5697-4.1125 6.1201z"/>
  </g>
  <g id="Ultralight-S" transform="matrix(1 0 0 1 521 626)">
   <path d="m69.9562 11.5292c-1.05-.044-2.6687 2.2235-4.1124 4.2488-1.2688 1.7832-2.4063 3.3683-2.9094 3.0601-.3938-.2202-.5688-.3302-.6563-.4843-.0875-.1321-.0875-.3303-.1093-.6605-.0219-.7044-.0657-2.1574-.9188-5.4376-1.1375-4.40291-5.6219-12.636366-14-8.10136-5.1406 2.77384-6.5187 5.83387-7.3281 7.63906-.8531 1.8933-1.0719 2.3996-4.2875-.2422-1.4875-1.2328-2.8-2.64171-4.1125-4.05064-1.1813-1.27685-2.3844-2.55369-3.7188-3.72047-2.7562-2.4216-6.4531-4.336873-10.1281-3.632406-1.4219.242161-2.7344.902596-3.85 1.827216-2.3187 1.95929-3.7187 4.99731-3.95937 8.0794-.32813 4.4469 1.35627 8.8058 3.08437 12.9665.35.9467.7656 1.9814.4156 2.906-.5906 1.607-2.5375 1.6951-4.4406 1.7832-.54688.022-1.07188.044-1.575.11-8.115625.8806-6.9125 12.1081-2.31875 16.1808.80937.7264 1.4 1.1667 1.81563 1.497.80937.6384 1.05.8145 1.33437 1.6731.19688.5723.56875 2.2014-2.12188 1.8712-2.90937-.9026-4.83437-.9246-6.05937-.3302v16.8852c0 2.4216 1.96875 4.4029 4.375 4.4029h61.25c2.4063 0 4.375-1.9813 4.375-4.4029v-54.0679zm-43.0718 35.4655c-1.2907-.7925-3.8938-1.4969-6.0813-.022-1.2906.8806-1.75 1.6291-1.925 2.1795-.1968.5944-.1968 1.2768.0219 2.2455.2844 1.2328-.5031 2.4656-1.7281 2.7518-1.225.2642-2.45-.5063-2.7125-1.7392-.3063-1.3429-.4813-2.9719.0875-4.6891.5687-1.7391 1.7937-3.2581 3.7187-4.557 4.2875-2.8839 8.925-1.3429 10.9813-.0881 1.0937.6605 1.4219 2.0694.7656 3.1481-.6562 1.1008-2.0563 1.431-3.1281.7705zm20.5625 20.2755c-7.7656 2.3335-14.5469-.8146-19.0094-11.0513-.6563-1.5411.2187-3.2802 1.8156-3.7645l23.0563-7.1988c1.2031-.3743 2.4937.066 2.8875 1.2548 1.8156 5.3276 1.7719 17.5677-8.75 20.7598zm17.4343-26.8138c-1.1812.4183-2.4937-.1981-2.9093-1.3869-.3282-.9466-.6782-1.541-1.1594-1.9373-.4375-.3963-1.225-.7925-2.8-.8806-2.6687-.1541-4.55 1.8272-5.2281 3.1261-.5688 1.1227-1.9469 1.563-3.0625.9686-1.1157-.5944-1.5531-1.9593-.9844-3.082 1.1375-2.1795 4.3969-5.8559 9.5156-5.5917 2.3406.1101 4.1563.7705 5.5344 1.9593 1.3344 1.1668 2.0344 2.6417 2.4719 3.8746.4156 1.2108-.1969 2.5096-1.3782 2.9499z"/>
  </g>
 </g>
</svg>
